<svg width="58" height="58" viewBox="0 0 58 58" fill="none" xmlns="http://www.w3.org/2000/svg">
<path d="M25.6321 5.6356C26.983 3.21187 27.6588 2 28.6686 2C29.6785 2 30.3542 3.21187 31.7051 5.6356L32.0548 6.26264C32.4388 6.95139 32.6307 7.29576 32.9299 7.52299C33.2294 7.75021 33.6022 7.83456 34.3475 8.00325L35.0265 8.15683C37.6502 8.75045 38.962 9.04728 39.274 10.0509C39.5862 11.0546 38.6918 12.1003 36.9033 14.1919L36.4404 14.733C35.9321 15.3274 35.6779 15.6246 35.5638 15.9922C35.4494 16.3599 35.4878 16.7564 35.5646 17.5494L35.6345 18.2714C35.9049 21.062 36.0403 22.4573 35.223 23.0776C34.4059 23.6979 33.1777 23.1323 30.7211 22.0013L30.0857 21.7086C29.3875 21.3872 29.0385 21.2265 28.6686 21.2265C28.2988 21.2265 27.9497 21.3872 27.2516 21.7086L26.6161 22.0013C24.1596 23.1323 22.9312 23.6979 22.1141 23.0776C21.297 22.4573 21.4322 21.062 21.7026 18.2714L21.7726 17.5494C21.8494 16.7564 21.8879 16.3599 21.7735 15.9922C21.6592 15.6246 21.4051 15.3274 20.8968 14.733L20.4341 14.1919C18.6454 12.1003 17.7511 11.0546 18.0632 10.0509C18.3753 9.04728 19.6871 8.75045 22.3108 8.15683L22.9895 8.00325C23.735 7.83456 24.1078 7.75021 24.4073 7.52299C24.7065 7.29576 24.8985 6.95139 25.2825 6.26264L25.6321 5.6356Z" stroke="white" stroke-width="4"/>
<path d="M48.4848 17.1511C49.1605 15.9393 49.4981 15.3333 50.0032 15.3333C50.5083 15.3333 50.8459 15.9392 51.5216 17.1511L51.6963 17.4646C51.8883 17.809 51.9843 17.9812 52.1339 18.0948C52.2835 18.2084 52.4699 18.2506 52.8427 18.3349L53.1821 18.4117C54.4939 18.7085 55.1499 18.8569 55.3059 19.3588C55.4619 19.8606 55.0149 20.3835 54.1205 21.4293L53.8891 21.6998C53.6349 21.997 53.508 22.1456 53.4507 22.3294C53.3936 22.5133 53.4128 22.7115 53.4512 23.108L53.4861 23.469C53.6213 24.8642 53.6891 25.5618 53.2805 25.872C52.872 26.1821 52.2579 25.8994 51.0296 25.3338L50.7117 25.1877C50.3627 25.0269 50.1883 24.9466 50.0032 24.9466C49.8181 24.9466 49.6437 25.0269 49.2947 25.1877L48.9768 25.3338C47.7485 25.8994 47.1344 26.1821 46.7259 25.872C46.3173 25.5618 46.3851 24.8642 46.5203 23.469L46.5552 23.108C46.5936 22.7115 46.6128 22.5133 46.5557 22.3294C46.4984 22.1456 46.3715 21.997 46.1173 21.6998L45.8859 21.4293C44.9915 20.3835 44.5445 19.8606 44.7005 19.3588C44.8565 18.8569 45.5125 18.7085 46.8243 18.4117L47.1637 18.3349C47.5365 18.2506 47.7229 18.2084 47.8725 18.0948C48.0221 17.9812 48.1181 17.809 48.3101 17.4646L48.4848 17.1511Z" stroke="white" stroke-width="4"/>
<path d="M5.81698 17.1511C6.49252 15.9393 6.83031 15.3333 7.3353 15.3333C7.84028 15.3333 8.17807 15.9392 8.85362 17.1511L9.02839 17.4646C9.22036 17.809 9.31634 17.9812 9.46599 18.0948C9.61564 18.2084 9.80204 18.2506 10.1748 18.3349L10.5142 18.4117C11.826 18.7085 12.482 18.8569 12.638 19.3588C12.7941 19.8606 12.3469 20.3835 11.4526 21.4293L11.2212 21.6998C10.9671 21.997 10.84 22.1456 10.7828 22.3294C10.7257 22.5133 10.7449 22.7115 10.7833 23.108L10.8183 23.469C10.9535 24.8642 11.0211 25.5618 10.6126 25.872C10.204 26.1821 9.58988 25.8994 8.36162 25.3338L8.04383 25.1877C7.69479 25.0269 7.52028 24.9466 7.3353 24.9466C7.15031 24.9466 6.9758 25.0269 6.62676 25.1877L6.30898 25.3338C5.08074 25.8994 4.4666 26.1821 4.05804 25.872C3.64948 25.5618 3.71711 24.8642 3.85231 23.469L3.8873 23.108C3.92572 22.7115 3.94492 22.5133 3.88775 22.3294C3.8306 22.1456 3.70354 21.997 3.44938 21.6998L3.21802 21.4293C2.3237 20.3835 1.87652 19.8606 2.03258 19.3588C2.18863 18.8569 2.84455 18.7085 4.15639 18.4117L4.49578 18.3349C4.86855 18.2506 5.05495 18.2084 5.2046 18.0948C5.35426 17.9812 5.45026 17.809 5.6422 17.4646L5.81698 17.1511Z" stroke="white" stroke-width="4"/>
<path d="M10.002 51.0357H16.0284C18.7241 51.0357 21.4487 51.3165 24.0721 51.8571C28.7129 52.8131 33.5988 52.9288 38.287 52.1701C40.5988 51.7957 42.8713 51.2237 44.9286 50.2307C46.7857 49.3344 49.0604 48.0709 50.5884 46.6557C52.1142 45.2427 53.7033 42.9299 54.831 41.1219C55.7982 39.5717 55.3305 37.6699 53.8006 36.5147C52.1014 35.2317 49.5798 35.232 47.8809 36.5155L43.0617 40.1557C41.194 41.5667 39.154 42.8653 36.7236 43.2531C36.4313 43.2997 36.1252 43.3421 35.8057 43.3792M35.8057 43.3792C35.7094 43.3904 35.6121 43.4011 35.5134 43.4112M35.8057 43.3792C36.1945 43.296 36.5804 43.056 36.9428 42.74C38.658 41.2429 38.7662 38.72 37.278 37.0483C36.9329 36.6605 36.5286 36.3371 36.0796 36.0691C28.6198 31.6197 17.0137 35.0085 10.002 39.9811M35.8057 43.3792C35.7084 43.4 35.6108 43.4112 35.5134 43.4112M35.5134 43.4112C34.1177 43.5544 32.4852 43.5915 30.6734 43.4203" stroke="white" stroke-width="4" stroke-linecap="round"/>
<path d="M10.002 38C10.002 35.7909 8.21109 34 6.00195 34C3.79281 34 2.00195 35.7909 2.00195 38V51.3333C2.00195 53.5425 3.79281 55.3333 6.00195 55.3333C8.21109 55.3333 10.002 53.5425 10.002 51.3333V38Z" stroke="white" stroke-width="4"/>
</svg>
