<svg width="52" height="58" viewBox="0 0 52 58" fill="none" xmlns="http://www.w3.org/2000/svg">
<path d="M36.6667 7.33331C42.4667 7.36561 45.6077 7.62281 47.6568 9.67182C50 12.015 50 15.7862 50 23.3287V39.3288C50 46.8712 50 50.6424 47.6568 52.9856C45.3136 55.3288 41.5424 55.3288 34 55.3288H18C10.4575 55.3288 6.68629 55.3288 4.34315 52.9856C2 50.6424 2 46.8712 2 39.3288V23.3287C2 15.7862 2 12.015 4.34315 9.67182C6.39216 7.62281 9.53325 7.36561 15.3333 7.33331" stroke="white" stroke-width="4"/>
<path d="M18 32.4L22.5715 36.6667L34 26" stroke="white" stroke-width="4" stroke-linecap="round" stroke-linejoin="round"/>
<path d="M15.332 6C15.332 3.79085 17.1229 2 19.332 2H32.6654C34.8744 2 36.6654 3.79085 36.6654 6V8.66667C36.6654 10.8758 34.8744 12.6667 32.6654 12.6667H19.332C17.1229 12.6667 15.332 10.8758 15.332 8.66667V6Z" stroke="white" stroke-width="4"/>
</svg>
