<svg width="47" height="58" viewBox="0 0 47 58" fill="none" xmlns="http://www.w3.org/2000/svg">
<path d="M6.45404 23.1094L14.6197 12.0613C19.898 4.91985 22.5372 1.34913 24.9996 2.10369C27.4617 2.85828 27.4617 7.23777 27.4617 15.9968V16.8226C27.4617 19.9818 27.4617 21.5614 28.4713 22.5522L28.5246 22.6036C29.5558 23.5735 31.1998 23.5735 34.4878 23.5735C40.4049 23.5735 43.3636 23.5735 44.3633 25.3679C44.3798 25.3975 44.3958 25.4277 44.4116 25.4578C45.3556 27.2802 43.6425 29.5978 40.2164 34.233L32.0508 45.281C26.7724 52.4223 24.1332 55.9933 21.6708 55.2386C19.2086 54.4839 19.2086 50.1045 19.2086 41.3453L19.2089 40.5199C19.2089 37.3605 19.2089 35.781 18.1993 34.7901L18.146 34.7389C17.1148 33.769 15.4707 33.769 12.1826 33.769C6.26564 33.769 3.30716 33.769 2.30729 31.9743C2.29073 31.9447 2.27463 31.9149 2.259 31.8845C1.31513 30.0623 3.02809 27.7447 6.45404 23.1094Z" stroke="white" stroke-width="4"/>
</svg>
